<svg xmlns="http://www.w3.org/2000/svg" viewBox="0 0 640 360" font-family="Public Sans, system-ui, sans-serif">
  <rect width="640" height="360" fill="#FDFDFC"/>
  <!-- header -->
  <rect x="0" y="0" width="640" height="52" fill="#FFFFFF"/>
  <line x1="0" y1="52" x2="640" y2="52" stroke="#E5E9F0" stroke-width="1"/>
  <rect x="24" y="17" width="18" height="18" rx="5" fill="#0F2447"/>
  <text x="33" y="30" text-anchor="middle" fill="#fff" font-size="10" font-weight="700" font-family="Source Serif 4, serif">S</text>
  <text x="52" y="30" fill="#141D2E" font-size="15" font-weight="700">Electronic Class Record</text>
  <text x="266" y="30" fill="#9AA7BC" font-size="12">·  Math 6</text>
  <rect x="470" y="15" width="146" height="24" rx="4" fill="#E8F0FC"/>
  <text x="543" y="31" text-anchor="middle" fill="#1D5FBF" font-size="10" font-weight="700">Class average  87.6</text>

  <!-- weights legend -->
  <text x="24" y="80" fill="#5B6B85" font-size="10" font-weight="600">Written Work 30%</text>
  <text x="150" y="80" fill="#5B6B85" font-size="10" font-weight="600">·  Performance 50%</text>
  <text x="300" y="80" fill="#5B6B85" font-size="10" font-weight="600">·  Quarterly 20%</text>

  <!-- QA column highlight -->
  <rect x="430" y="96" width="70" height="248" fill="#E8F0FC" opacity="0.6"/>

  <!-- table header -->
  <text x="24" y="112" fill="#9AA7BC" font-size="9" font-weight="700" letter-spacing="1">STUDENT</text>
  <text x="300" y="112" text-anchor="middle" fill="#9AA7BC" font-size="9" font-weight="700" letter-spacing="1">WW</text>
  <text x="380" y="112" text-anchor="middle" fill="#9AA7BC" font-size="9" font-weight="700" letter-spacing="1">PT</text>
  <text x="465" y="112" text-anchor="middle" fill="#1D5FBF" font-size="9" font-weight="700" letter-spacing="1">QA</text>
  <text x="560" y="112" text-anchor="middle" fill="#9AA7BC" font-size="9" font-weight="700" letter-spacing="1">GRADE</text>
  <line x1="24" y1="122" x2="616" y2="122" stroke="#E5E9F0" stroke-width="1"/>

  <!-- rows -->
  <g font-size="12">
    <!-- r1 -->
    <text x="24" y="150" fill="#141D2E" font-weight="600">Maria Santos</text>
    <text x="300" y="150" text-anchor="middle" fill="#4A5A75">28</text>
    <text x="380" y="150" text-anchor="middle" fill="#4A5A75">47</text>
    <text x="465" y="150" text-anchor="middle" fill="#0F2447" font-weight="700">18</text>
    <text x="560" y="150" text-anchor="middle" fill="#1D5FBF" font-weight="700">93</text>
    <line x1="24" y1="166" x2="616" y2="166" stroke="#E5E9F0" stroke-width="1"/>
    <!-- r2 -->
    <text x="24" y="194" fill="#141D2E" font-weight="600">Juan dela Cruz</text>
    <text x="300" y="194" text-anchor="middle" fill="#4A5A75">26</text>
    <text x="380" y="194" text-anchor="middle" fill="#4A5A75">44</text>
    <text x="465" y="194" text-anchor="middle" fill="#0F2447" font-weight="700">17</text>
    <text x="560" y="194" text-anchor="middle" fill="#1D5FBF" font-weight="700">87</text>
    <line x1="24" y1="210" x2="616" y2="210" stroke="#E5E9F0" stroke-width="1"/>
    <!-- r3 -->
    <text x="24" y="238" fill="#141D2E" font-weight="600">Andrea Reyes</text>
    <text x="300" y="238" text-anchor="middle" fill="#4A5A75">29</text>
    <text x="380" y="238" text-anchor="middle" fill="#4A5A75">48</text>
    <text x="465" y="238" text-anchor="middle" fill="#0F2447" font-weight="700">19</text>
    <text x="560" y="238" text-anchor="middle" fill="#1D5FBF" font-weight="700">96</text>
    <line x1="24" y1="254" x2="616" y2="254" stroke="#E5E9F0" stroke-width="1"/>
    <!-- r4 -->
    <text x="24" y="282" fill="#141D2E" font-weight="600">Miguel Torres</text>
    <text x="300" y="282" text-anchor="middle" fill="#4A5A75">25</text>
    <text x="380" y="282" text-anchor="middle" fill="#4A5A75">43</text>
    <text x="465" y="282" text-anchor="middle" fill="#0F2447" font-weight="700">16</text>
    <text x="560" y="282" text-anchor="middle" fill="#1D5FBF" font-weight="700">84</text>
    <line x1="24" y1="298" x2="616" y2="298" stroke="#E5E9F0" stroke-width="1"/>
    <!-- r5 -->
    <text x="24" y="326" fill="#141D2E" font-weight="600">Sofia Lim</text>
    <text x="300" y="326" text-anchor="middle" fill="#4A5A75">30</text>
    <text x="380" y="326" text-anchor="middle" fill="#4A5A75">49</text>
    <text x="465" y="326" text-anchor="middle" fill="#0F2447" font-weight="700">20</text>
    <text x="560" y="326" text-anchor="middle" fill="#1D5FBF" font-weight="700">99</text>
  </g>
</svg>
