<svg xmlns="http://www.w3.org/2000/svg" viewBox="0 0 640 360" font-family="Public Sans, system-ui, sans-serif">
  <rect width="640" height="360" fill="#FDFDFC"/>
  <!-- header -->
  <rect x="0" y="0" width="640" height="52" fill="#FFFFFF"/>
  <line x1="0" y1="52" x2="640" y2="52" stroke="#E5E9F0" stroke-width="1"/>
  <rect x="24" y="17" width="18" height="18" rx="5" fill="#0F2447"/>
  <text x="33" y="30" text-anchor="middle" fill="#fff" font-size="10" font-weight="700" font-family="Source Serif 4, serif">S</text>
  <text x="52" y="30" fill="#141D2E" font-size="15" font-weight="700">Enrollment</text>
  <rect x="486" y="14" width="130" height="26" rx="4" fill="#1D5FBF"/>
  <text x="551" y="31" text-anchor="middle" fill="#fff" font-size="11" font-weight="700">+ New application</text>

  <!-- filter chips -->
  <rect x="24" y="68" width="46" height="22" rx="4" fill="#1D5FBF"/>
  <text x="47" y="83" text-anchor="middle" fill="#fff" font-size="10" font-weight="700">All</text>
  <rect x="78" y="68" width="74" height="22" rx="4" fill="#E8F0FC"/>
  <text x="115" y="83" text-anchor="middle" fill="#1D5FBF" font-size="10" font-weight="700">Enrolled</text>
  <rect x="160" y="68" width="70" height="22" rx="4" fill="#E8F0FC"/>
  <text x="195" y="83" text-anchor="middle" fill="#5B6B85" font-size="10" font-weight="700">Pending</text>

  <!-- table header -->
  <text x="64" y="114" fill="#9AA7BC" font-size="9" font-weight="700" letter-spacing="1">STUDENT</text>
  <text x="360" y="114" fill="#9AA7BC" font-size="9" font-weight="700" letter-spacing="1">GRADE</text>
  <text x="452" y="114" fill="#9AA7BC" font-size="9" font-weight="700" letter-spacing="1">SECTION</text>
  <text x="552" y="114" fill="#9AA7BC" font-size="9" font-weight="700" letter-spacing="1">STATUS</text>
  <line x1="24" y1="124" x2="616" y2="124" stroke="#E5E9F0" stroke-width="1"/>

  <!-- row 1 -->
  <circle cx="40" cy="150" r="14" fill="#E8F0FC"/>
  <text x="40" y="154" text-anchor="middle" fill="#1D5FBF" font-size="10" font-weight="700">MS</text>
  <text x="64" y="147" fill="#141D2E" font-size="12" font-weight="600">Maria Santos</text>
  <text x="64" y="161" fill="#9AA7BC" font-size="9">LRN 1360-2201-0047</text>
  <text x="360" y="154" fill="#4A5A75" font-size="11">Grade 4</text>
  <text x="452" y="154" fill="#4A5A75" font-size="11">St. Peter</text>
  <rect x="552" y="140" width="64" height="20" rx="4" fill="#E8F0FC"/>
  <text x="584" y="154" text-anchor="middle" fill="#1D5FBF" font-size="9" font-weight="700">Enrolled</text>
  <line x1="24" y1="176" x2="616" y2="176" stroke="#E5E9F0" stroke-width="1"/>

  <!-- row 2 -->
  <circle cx="40" cy="202" r="14" fill="#E8F0FC"/>
  <text x="40" y="206" text-anchor="middle" fill="#1D5FBF" font-size="10" font-weight="700">JC</text>
  <text x="64" y="199" fill="#141D2E" font-size="12" font-weight="600">Juan dela Cruz</text>
  <text x="64" y="213" fill="#9AA7BC" font-size="9">LRN 1360-2201-0048</text>
  <text x="360" y="206" fill="#4A5A75" font-size="11">Grade 6</text>
  <text x="452" y="206" fill="#4A5A75" font-size="11">St. Paul</text>
  <rect x="552" y="192" width="64" height="20" rx="4" fill="#E8F0FC"/>
  <text x="584" y="206" text-anchor="middle" fill="#1D5FBF" font-size="9" font-weight="700">Enrolled</text>
  <line x1="24" y1="228" x2="616" y2="228" stroke="#E5E9F0" stroke-width="1"/>

  <!-- row 3 -->
  <circle cx="40" cy="254" r="14" fill="#E8F0FC"/>
  <text x="40" y="258" text-anchor="middle" fill="#1D5FBF" font-size="10" font-weight="700">AR</text>
  <text x="64" y="251" fill="#141D2E" font-size="12" font-weight="600">Andrea Reyes</text>
  <text x="64" y="265" fill="#9AA7BC" font-size="9">LRN 1360-2201-0049</text>
  <text x="360" y="258" fill="#4A5A75" font-size="11">Grade 2</text>
  <text x="452" y="258" fill="#4A5A75" font-size="11">St. Anne</text>
  <rect x="552" y="244" width="64" height="20" rx="4" fill="#FBEDEE"/>
  <text x="584" y="258" text-anchor="middle" fill="#B4232A" font-size="9" font-weight="700">Pending</text>
  <line x1="24" y1="280" x2="616" y2="280" stroke="#E5E9F0" stroke-width="1"/>

  <!-- row 4 -->
  <circle cx="40" cy="306" r="14" fill="#E8F0FC"/>
  <text x="40" y="310" text-anchor="middle" fill="#1D5FBF" font-size="10" font-weight="700">MT</text>
  <text x="64" y="303" fill="#141D2E" font-size="12" font-weight="600">Miguel Torres</text>
  <text x="64" y="317" fill="#9AA7BC" font-size="9">LRN 1360-2201-0050</text>
  <text x="360" y="310" fill="#4A5A75" font-size="11">Grade 6</text>
  <text x="452" y="310" fill="#4A5A75" font-size="11">St. Paul</text>
  <rect x="552" y="296" width="64" height="20" rx="4" fill="#E8F0FC"/>
  <text x="584" y="310" text-anchor="middle" fill="#1D5FBF" font-size="9" font-weight="700">Enrolled</text>
</svg>
